<svg width="106" height="75" viewBox="0 0 106 75" fill="none" xmlns="http://www.w3.org/2000/svg">
<path d="M26.3864 74.7273C21.6818 74.7273 17.6477 74.0795 14.2841 72.7841C10.9432 71.5114 8.28409 69.7727 6.30682 67.5682C4.32955 65.3636 3.04545 62.8864 2.45455 60.1364L15.8864 58.3295C16.2955 59.375 16.9432 60.3523 17.8295 61.2614C18.7159 62.1705 19.8864 62.8977 21.3409 63.4432C22.8182 64.0114 24.6136 64.2955 26.7273 64.2955C29.8864 64.2955 32.4886 63.5227 34.5341 61.9773C36.6023 60.4545 37.6364 57.8977 37.6364 54.3068V44.7273H37.0227C36.3864 46.1818 35.4318 47.5568 34.1591 48.8523C32.8864 50.1477 31.25 51.2045 29.25 52.0227C27.25 52.8409 24.8636 53.25 22.0909 53.25C18.1591 53.25 14.5795 52.3409 11.3523 50.5227C8.14773 48.6818 5.59091 45.875 3.68182 42.1023C1.79545 38.3068 0.852273 33.5114 0.852273 27.7159C0.852273 21.7841 1.81818 16.8295 3.75 12.8523C5.68182 8.875 8.25 5.89773 11.4545 3.92045C14.6818 1.94318 18.2159 0.954546 22.0568 0.954546C24.9886 0.954546 27.4432 1.45455 29.4205 2.45455C31.3977 3.43182 32.9886 4.65909 34.1932 6.13636C35.4205 7.59091 36.3636 9.02273 37.0227 10.4318H37.5682V1.63636H51.9886V54.5114C51.9886 58.9659 50.8977 62.6932 48.7159 65.6932C46.5341 68.6932 43.5114 70.9432 39.6477 72.4432C35.8068 73.9659 31.3864 74.7273 26.3864 74.7273ZM26.6932 42.3409C29.0341 42.3409 31.0114 41.7614 32.625 40.6023C34.2614 39.4205 35.5114 37.7386 36.375 35.5568C37.2614 33.3523 37.7045 30.7159 37.7045 27.6477C37.7045 24.5795 37.2727 21.9205 36.4091 19.6705C35.5455 17.3977 34.2955 15.6364 32.6591 14.3864C31.0227 13.1364 29.0341 12.5114 26.6932 12.5114C24.3068 12.5114 22.2955 13.1591 20.6591 14.4545C19.0227 15.7273 17.7841 17.5 16.9432 19.7727C16.1023 22.0455 15.6818 24.6705 15.6818 27.6477C15.6818 30.6705 16.1023 33.2841 16.9432 35.4886C17.8068 37.6705 19.0455 39.3636 20.6591 40.5682C22.2955 41.75 24.3068 42.3409 26.6932 42.3409ZM54.9055 73.6364V1.63636H69.2236V10.4318H69.8714C70.5077 9.02273 71.4282 7.59091 72.6327 6.13636C73.86 4.65909 75.4509 3.43182 77.4055 2.45455C79.3827 1.45455 81.8373 0.954546 84.7691 0.954546C88.5873 0.954546 92.11 1.95455 95.3373 3.95455C98.5645 5.93182 101.144 8.92045 103.076 12.9205C105.008 16.8977 105.974 21.8864 105.974 27.8864C105.974 33.7273 105.03 38.6591 103.144 42.6818C101.28 46.6818 98.735 49.7159 95.5077 51.7841C92.3032 53.8295 88.7123 54.8523 84.735 54.8523C81.9168 54.8523 79.5191 54.3864 77.5418 53.4545C75.5873 52.5227 73.985 51.3523 72.735 49.9432C71.485 48.5114 70.5305 47.0682 69.8714 45.6136H69.4282V73.6364H54.9055ZM69.1214 27.8182C69.1214 30.9318 69.5532 33.6477 70.4168 35.9659C71.2805 38.2841 72.5305 40.0909 74.1668 41.3864C75.8032 42.6591 77.7918 43.2955 80.1327 43.2955C82.4964 43.2955 84.4964 42.6477 86.1327 41.3523C87.7691 40.0341 89.0077 38.2159 89.8486 35.8977C90.7123 33.5568 91.1441 30.8636 91.1441 27.8182C91.1441 24.7955 90.7236 22.1364 89.8827 19.8409C89.0418 17.5455 87.8032 15.75 86.1668 14.4545C84.5305 13.1591 82.5191 12.5114 80.1327 12.5114C77.7691 12.5114 75.7691 13.1364 74.1327 14.3864C72.5191 15.6364 71.2805 17.4091 70.4168 19.7045C69.5532 22 69.1214 24.7045 69.1214 27.8182Z" fill="url(#paint0_linear_405_2)"/>
<defs>
<linearGradient id="paint0_linear_405_2" x1="-7.52" y1="-38.9999" x2="112.391" y2="-36.4728" gradientUnits="userSpaceOnUse">
<stop stop-color="#13D7E3"/>
<stop offset="1" stop-color="#4D5EFF"/>
</linearGradient>
</defs>
</svg>
